<svg width="299" height="55" viewBox="0 0 299 55" fill="none" xmlns="http://www.w3.org/2000/svg">
<rect width="161" height="55" rx="15" fill="#0C760A"/>
<path d="M186.89 24.15C186.19 24.15 185.56 24.065 185 23.895C184.44 23.715 183.905 23.405 183.395 22.965C183.265 22.855 183.165 22.73 183.095 22.59C183.025 22.45 182.99 22.31 182.99 22.17C182.99 21.94 183.07 21.74 183.23 21.57C183.4 21.39 183.61 21.3 183.86 21.3C184.05 21.3 184.22 21.36 184.37 21.48C184.75 21.79 185.125 22.025 185.495 22.185C185.875 22.345 186.34 22.425 186.89 22.425C187.26 22.425 187.6 22.37 187.91 22.26C188.22 22.14 188.47 21.985 188.66 21.795C188.85 21.595 188.945 21.37 188.945 21.12C188.945 20.82 188.855 20.565 188.675 20.355C188.495 20.145 188.22 19.97 187.85 19.83C187.48 19.68 187.01 19.565 186.44 19.485C185.9 19.405 185.425 19.285 185.015 19.125C184.605 18.955 184.26 18.745 183.98 18.495C183.71 18.235 183.505 17.935 183.365 17.595C183.225 17.245 183.155 16.855 183.155 16.425C183.155 15.775 183.32 15.22 183.65 14.76C183.99 14.3 184.445 13.95 185.015 13.71C185.585 13.47 186.215 13.35 186.905 13.35C187.555 13.35 188.155 13.45 188.705 13.65C189.265 13.84 189.72 14.085 190.07 14.385C190.36 14.615 190.505 14.88 190.505 15.18C190.505 15.4 190.42 15.6 190.25 15.78C190.08 15.96 189.88 16.05 189.65 16.05C189.5 16.05 189.365 16.005 189.245 15.915C189.085 15.775 188.87 15.645 188.6 15.525C188.33 15.395 188.045 15.29 187.745 15.21C187.445 15.12 187.165 15.075 186.905 15.075C186.475 15.075 186.11 15.13 185.81 15.24C185.52 15.35 185.3 15.5 185.15 15.69C185 15.88 184.925 16.1 184.925 16.35C184.925 16.65 185.01 16.9 185.18 17.1C185.36 17.29 185.615 17.445 185.945 17.565C186.275 17.675 186.67 17.775 187.13 17.865C187.73 17.975 188.255 18.105 188.705 18.255C189.165 18.405 189.545 18.6 189.845 18.84C190.145 19.07 190.37 19.365 190.52 19.725C190.67 20.075 190.745 20.505 190.745 21.015C190.745 21.665 190.565 22.225 190.205 22.695C189.845 23.165 189.37 23.525 188.78 23.775C188.2 24.025 187.57 24.15 186.89 24.15ZM196.095 24.15C195.245 24.15 194.505 23.975 193.875 23.625C193.255 23.265 192.775 22.78 192.435 22.17C192.105 21.56 191.94 20.87 191.94 20.1C191.94 19.2 192.12 18.435 192.48 17.805C192.85 17.165 193.33 16.675 193.92 16.335C194.51 15.995 195.135 15.825 195.795 15.825C196.305 15.825 196.785 15.93 197.235 16.14C197.695 16.35 198.1 16.64 198.45 17.01C198.8 17.37 199.075 17.79 199.275 18.27C199.485 18.75 199.59 19.26 199.59 19.8C199.58 20.04 199.485 20.235 199.305 20.385C199.125 20.535 198.915 20.61 198.675 20.61H192.945L192.495 19.11H198L197.67 19.41V19.005C197.65 18.715 197.545 18.455 197.355 18.225C197.175 17.995 196.945 17.815 196.665 17.685C196.395 17.545 196.105 17.475 195.795 17.475C195.495 17.475 195.215 17.515 194.955 17.595C194.695 17.675 194.47 17.81 194.28 18C194.09 18.19 193.94 18.445 193.83 18.765C193.72 19.085 193.665 19.49 193.665 19.98C193.665 20.52 193.775 20.98 193.995 21.36C194.225 21.73 194.515 22.015 194.865 22.215C195.225 22.405 195.605 22.5 196.005 22.5C196.375 22.5 196.67 22.47 196.89 22.41C197.11 22.35 197.285 22.28 197.415 22.2C197.555 22.11 197.68 22.035 197.79 21.975C197.97 21.885 198.14 21.84 198.3 21.84C198.52 21.84 198.7 21.915 198.84 22.065C198.99 22.215 199.065 22.39 199.065 22.59C199.065 22.86 198.925 23.105 198.645 23.325C198.385 23.545 198.02 23.74 197.55 23.91C197.08 24.07 196.595 24.15 196.095 24.15ZM205.453 15.825C206.193 15.825 206.753 15.98 207.133 16.29C207.523 16.6 207.788 17.015 207.928 17.535C208.078 18.045 208.153 18.615 208.153 19.245V23.085C208.153 23.345 208.068 23.565 207.897 23.745C207.728 23.915 207.513 24 207.253 24C206.993 24 206.778 23.915 206.608 23.745C206.438 23.565 206.353 23.345 206.353 23.085V19.245C206.353 18.915 206.308 18.62 206.218 18.36C206.138 18.09 205.988 17.875 205.768 17.715C205.548 17.555 205.233 17.475 204.823 17.475C204.423 17.475 204.083 17.555 203.803 17.715C203.533 17.875 203.323 18.09 203.173 18.36C203.033 18.62 202.963 18.915 202.963 19.245V23.085C202.963 23.345 202.878 23.565 202.708 23.745C202.538 23.915 202.323 24 202.062 24C201.803 24 201.588 23.915 201.418 23.745C201.248 23.565 201.163 23.345 201.163 23.085V16.89C201.163 16.63 201.248 16.415 201.418 16.245C201.588 16.065 201.803 15.975 202.062 15.975C202.323 15.975 202.538 16.065 202.708 16.245C202.878 16.415 202.963 16.63 202.963 16.89V17.535L202.738 17.49C202.828 17.32 202.958 17.14 203.128 16.95C203.298 16.75 203.498 16.565 203.728 16.395C203.958 16.225 204.218 16.09 204.508 15.99C204.798 15.88 205.113 15.825 205.453 15.825ZM209.633 22.755C209.533 22.615 209.488 22.435 209.498 22.215C209.508 21.995 209.638 21.805 209.888 21.645C210.048 21.545 210.218 21.505 210.398 21.525C210.578 21.535 210.753 21.625 210.923 21.795C211.213 22.085 211.518 22.31 211.838 22.47C212.158 22.63 212.558 22.71 213.038 22.71C213.188 22.7 213.353 22.68 213.533 22.65C213.713 22.61 213.868 22.53 213.998 22.41C214.138 22.28 214.208 22.085 214.208 21.825C214.208 21.605 214.133 21.43 213.983 21.3C213.833 21.17 213.633 21.06 213.383 20.97C213.143 20.88 212.873 20.795 212.573 20.715C212.263 20.625 211.943 20.525 211.613 20.415C211.293 20.305 210.998 20.165 210.728 19.995C210.458 19.815 210.238 19.58 210.068 19.29C209.898 19 209.813 18.635 209.813 18.195C209.813 17.695 209.953 17.27 210.233 16.92C210.513 16.57 210.873 16.3 211.313 16.11C211.763 15.92 212.233 15.825 212.723 15.825C213.033 15.825 213.358 15.865 213.698 15.945C214.038 16.015 214.363 16.135 214.673 16.305C214.983 16.465 215.243 16.68 215.453 16.95C215.563 17.1 215.628 17.28 215.648 17.49C215.668 17.7 215.573 17.89 215.363 18.06C215.213 18.18 215.038 18.235 214.838 18.225C214.638 18.205 214.473 18.135 214.343 18.015C214.173 17.795 213.943 17.62 213.653 17.49C213.373 17.36 213.048 17.295 212.678 17.295C212.528 17.295 212.363 17.315 212.183 17.355C212.013 17.385 211.863 17.46 211.733 17.58C211.603 17.69 211.538 17.87 211.538 18.12C211.538 18.35 211.613 18.535 211.763 18.675C211.913 18.805 212.113 18.915 212.363 19.005C212.623 19.085 212.898 19.165 213.188 19.245C213.488 19.325 213.793 19.42 214.103 19.53C214.413 19.64 214.698 19.785 214.958 19.965C215.218 20.145 215.428 20.38 215.588 20.67C215.748 20.95 215.828 21.31 215.828 21.75C215.828 22.26 215.678 22.695 215.378 23.055C215.078 23.415 214.703 23.69 214.253 23.88C213.803 24.06 213.343 24.15 212.873 24.15C212.283 24.15 211.693 24.05 211.103 23.85C210.513 23.64 210.023 23.275 209.633 22.755ZM225.119 19.995C225.119 20.815 224.934 21.54 224.564 22.17C224.204 22.79 223.714 23.275 223.094 23.625C222.484 23.975 221.799 24.15 221.039 24.15C220.279 24.15 219.589 23.975 218.969 23.625C218.359 23.275 217.869 22.79 217.499 22.17C217.139 21.54 216.959 20.815 216.959 19.995C216.959 19.175 217.139 18.455 217.499 17.835C217.869 17.205 218.359 16.715 218.969 16.365C219.589 16.005 220.279 15.825 221.039 15.825C221.799 15.825 222.484 16.005 223.094 16.365C223.714 16.715 224.204 17.205 224.564 17.835C224.934 18.455 225.119 19.175 225.119 19.995ZM223.319 19.995C223.319 19.485 223.214 19.045 223.004 18.675C222.804 18.295 222.529 18 222.179 17.79C221.839 17.58 221.459 17.475 221.039 17.475C220.619 17.475 220.234 17.58 219.884 17.79C219.544 18 219.269 18.295 219.059 18.675C218.859 19.045 218.759 19.485 218.759 19.995C218.759 20.495 218.859 20.935 219.059 21.315C219.269 21.685 219.544 21.975 219.884 22.185C220.234 22.395 220.619 22.5 221.039 22.5C221.459 22.5 221.839 22.395 222.179 22.185C222.529 21.975 222.804 21.685 223.004 21.315C223.214 20.935 223.319 20.495 223.319 19.995ZM227.595 24C227.335 24 227.12 23.915 226.95 23.745C226.78 23.565 226.695 23.345 226.695 23.085V16.89C226.695 16.63 226.78 16.415 226.95 16.245C227.12 16.065 227.335 15.975 227.595 15.975C227.855 15.975 228.07 16.065 228.24 16.245C228.41 16.415 228.495 16.63 228.495 16.89V18.3L228.39 17.295C228.5 17.055 228.64 16.845 228.81 16.665C228.99 16.475 229.19 16.32 229.41 16.2C229.63 16.07 229.865 15.975 230.115 15.915C230.365 15.855 230.615 15.825 230.865 15.825C231.165 15.825 231.415 15.91 231.615 16.08C231.825 16.25 231.93 16.45 231.93 16.68C231.93 17.01 231.845 17.25 231.675 17.4C231.505 17.54 231.32 17.61 231.12 17.61C230.93 17.61 230.755 17.575 230.595 17.505C230.445 17.435 230.27 17.4 230.07 17.4C229.89 17.4 229.705 17.445 229.515 17.535C229.335 17.615 229.165 17.745 229.005 17.925C228.855 18.105 228.73 18.33 228.63 18.6C228.54 18.86 228.495 19.17 228.495 19.53V23.085C228.495 23.345 228.41 23.565 228.24 23.745C228.07 23.915 227.855 24 227.595 24ZM236.642 24.15C235.792 24.15 235.052 23.975 234.422 23.625C233.802 23.265 233.322 22.78 232.982 22.17C232.652 21.56 232.487 20.87 232.487 20.1C232.487 19.2 232.667 18.435 233.027 17.805C233.397 17.165 233.877 16.675 234.467 16.335C235.057 15.995 235.682 15.825 236.342 15.825C236.852 15.825 237.332 15.93 237.782 16.14C238.242 16.35 238.647 16.64 238.997 17.01C239.347 17.37 239.622 17.79 239.822 18.27C240.032 18.75 240.137 19.26 240.137 19.8C240.127 20.04 240.032 20.235 239.852 20.385C239.672 20.535 239.462 20.61 239.222 20.61H233.492L233.042 19.11H238.547L238.217 19.41V19.005C238.197 18.715 238.092 18.455 237.902 18.225C237.722 17.995 237.492 17.815 237.212 17.685C236.942 17.545 236.652 17.475 236.342 17.475C236.042 17.475 235.762 17.515 235.502 17.595C235.242 17.675 235.017 17.81 234.827 18C234.637 18.19 234.487 18.445 234.377 18.765C234.267 19.085 234.212 19.49 234.212 19.98C234.212 20.52 234.322 20.98 234.542 21.36C234.772 21.73 235.062 22.015 235.412 22.215C235.772 22.405 236.152 22.5 236.552 22.5C236.922 22.5 237.217 22.47 237.437 22.41C237.657 22.35 237.832 22.28 237.962 22.2C238.102 22.11 238.227 22.035 238.337 21.975C238.517 21.885 238.687 21.84 238.847 21.84C239.067 21.84 239.247 21.915 239.387 22.065C239.537 22.215 239.612 22.39 239.612 22.59C239.612 22.86 239.472 23.105 239.192 23.325C238.932 23.545 238.567 23.74 238.097 23.91C237.627 24.07 237.142 24.15 236.642 24.15ZM241.244 22.755C241.144 22.615 241.099 22.435 241.109 22.215C241.119 21.995 241.249 21.805 241.499 21.645C241.659 21.545 241.829 21.505 242.009 21.525C242.189 21.535 242.364 21.625 242.534 21.795C242.824 22.085 243.129 22.31 243.449 22.47C243.769 22.63 244.169 22.71 244.649 22.71C244.799 22.7 244.964 22.68 245.144 22.65C245.324 22.61 245.479 22.53 245.609 22.41C245.749 22.28 245.819 22.085 245.819 21.825C245.819 21.605 245.744 21.43 245.594 21.3C245.444 21.17 245.244 21.06 244.994 20.97C244.754 20.88 244.484 20.795 244.184 20.715C243.874 20.625 243.554 20.525 243.224 20.415C242.904 20.305 242.609 20.165 242.339 19.995C242.069 19.815 241.849 19.58 241.679 19.29C241.509 19 241.424 18.635 241.424 18.195C241.424 17.695 241.564 17.27 241.844 16.92C242.124 16.57 242.484 16.3 242.924 16.11C243.374 15.92 243.844 15.825 244.334 15.825C244.644 15.825 244.969 15.865 245.309 15.945C245.649 16.015 245.974 16.135 246.284 16.305C246.594 16.465 246.854 16.68 247.064 16.95C247.174 17.1 247.239 17.28 247.259 17.49C247.279 17.7 247.184 17.89 246.974 18.06C246.824 18.18 246.649 18.235 246.449 18.225C246.249 18.205 246.084 18.135 245.954 18.015C245.784 17.795 245.554 17.62 245.264 17.49C244.984 17.36 244.659 17.295 244.289 17.295C244.139 17.295 243.974 17.315 243.794 17.355C243.624 17.385 243.474 17.46 243.344 17.58C243.214 17.69 243.149 17.87 243.149 18.12C243.149 18.35 243.224 18.535 243.374 18.675C243.524 18.805 243.724 18.915 243.974 19.005C244.234 19.085 244.509 19.165 244.799 19.245C245.099 19.325 245.404 19.42 245.714 19.53C246.024 19.64 246.309 19.785 246.569 19.965C246.829 20.145 247.039 20.38 247.199 20.67C247.359 20.95 247.439 21.31 247.439 21.75C247.439 22.26 247.289 22.695 246.989 23.055C246.689 23.415 246.314 23.69 245.864 23.88C245.414 24.06 244.954 24.15 244.484 24.15C243.894 24.15 243.304 24.05 242.714 23.85C242.124 23.64 241.634 23.275 241.244 22.755ZM257.635 13.5C258.155 13.5 258.64 13.65 259.09 13.95C259.55 14.25 259.92 14.655 260.2 15.165C260.48 15.675 260.62 16.245 260.62 16.875C260.62 17.495 260.48 18.06 260.2 18.57C259.92 19.08 259.55 19.49 259.09 19.8C258.64 20.1 258.155 20.25 257.635 20.25H254.875L255.025 19.98V23.085C255.025 23.345 254.945 23.565 254.785 23.745C254.625 23.915 254.415 24 254.155 24C253.905 24 253.7 23.915 253.54 23.745C253.38 23.565 253.3 23.345 253.3 23.085V14.415C253.3 14.155 253.385 13.94 253.555 13.77C253.735 13.59 253.955 13.5 254.215 13.5H257.635ZM257.635 18.54C257.825 18.54 258.01 18.46 258.19 18.3C258.37 18.14 258.52 17.935 258.64 17.685C258.76 17.425 258.82 17.155 258.82 16.875C258.82 16.585 258.76 16.315 258.64 16.065C258.52 15.815 258.37 15.615 258.19 15.465C258.01 15.305 257.825 15.225 257.635 15.225H254.845L255.025 14.955V18.78L254.86 18.54H257.635ZM268.07 15.975C268.33 15.975 268.545 16.065 268.715 16.245C268.885 16.415 268.97 16.63 268.97 16.89V20.7C268.97 21.76 268.675 22.6 268.085 23.22C267.495 23.84 266.645 24.15 265.535 24.15C264.425 24.15 263.575 23.84 262.985 23.22C262.405 22.6 262.115 21.76 262.115 20.7V16.89C262.115 16.63 262.2 16.415 262.37 16.245C262.54 16.065 262.755 15.975 263.015 15.975C263.275 15.975 263.49 16.065 263.66 16.245C263.83 16.415 263.915 16.63 263.915 16.89V20.7C263.915 21.31 264.05 21.765 264.32 22.065C264.59 22.355 264.995 22.5 265.535 22.5C266.085 22.5 266.495 22.355 266.765 22.065C267.035 21.765 267.17 21.31 267.17 20.7V16.89C267.17 16.63 267.255 16.415 267.425 16.245C267.595 16.065 267.81 15.975 268.07 15.975ZM271.818 24C271.558 24 271.343 23.915 271.173 23.745C271.003 23.565 270.918 23.345 270.918 23.085V16.89C270.918 16.63 271.003 16.415 271.173 16.245C271.343 16.065 271.558 15.975 271.818 15.975C272.078 15.975 272.293 16.065 272.463 16.245C272.633 16.415 272.718 16.63 272.718 16.89V18.3L272.613 17.295C272.723 17.055 272.863 16.845 273.033 16.665C273.213 16.475 273.413 16.32 273.633 16.2C273.853 16.07 274.088 15.975 274.338 15.915C274.588 15.855 274.838 15.825 275.088 15.825C275.388 15.825 275.638 15.91 275.838 16.08C276.048 16.25 276.153 16.45 276.153 16.68C276.153 17.01 276.068 17.25 275.898 17.4C275.728 17.54 275.543 17.61 275.343 17.61C275.153 17.61 274.978 17.575 274.818 17.505C274.668 17.435 274.493 17.4 274.293 17.4C274.113 17.4 273.928 17.445 273.738 17.535C273.558 17.615 273.388 17.745 273.228 17.925C273.078 18.105 272.953 18.33 272.853 18.6C272.763 18.86 272.718 19.17 272.718 19.53V23.085C272.718 23.345 272.633 23.565 272.463 23.745C272.293 23.915 272.078 24 271.818 24ZM281.577 15.825C282.277 15.825 282.902 16.005 283.452 16.365C284.012 16.715 284.452 17.2 284.772 17.82C285.102 18.44 285.267 19.16 285.267 19.98C285.267 20.8 285.102 21.525 284.772 22.155C284.452 22.775 284.017 23.265 283.467 23.625C282.927 23.975 282.317 24.15 281.637 24.15C281.237 24.15 280.862 24.085 280.512 23.955C280.162 23.825 279.852 23.66 279.582 23.46C279.322 23.26 279.117 23.06 278.967 22.86C278.827 22.65 278.757 22.475 278.757 22.335L279.222 22.14V26.085C279.222 26.345 279.137 26.56 278.967 26.73C278.797 26.91 278.582 27 278.322 27C278.062 27 277.847 26.915 277.677 26.745C277.507 26.575 277.422 26.355 277.422 26.085V16.89C277.422 16.63 277.507 16.415 277.677 16.245C277.847 16.065 278.062 15.975 278.322 15.975C278.582 15.975 278.797 16.065 278.967 16.245C279.137 16.415 279.222 16.63 279.222 16.89V17.625L278.967 17.49C278.967 17.36 279.037 17.205 279.177 17.025C279.317 16.835 279.507 16.65 279.747 16.47C279.987 16.28 280.262 16.125 280.572 16.005C280.892 15.885 281.227 15.825 281.577 15.825ZM281.352 17.475C280.912 17.475 280.527 17.585 280.197 17.805C279.867 18.025 279.607 18.325 279.417 18.705C279.237 19.075 279.147 19.5 279.147 19.98C279.147 20.45 279.237 20.88 279.417 21.27C279.607 21.65 279.867 21.95 280.197 22.17C280.527 22.39 280.912 22.5 281.352 22.5C281.792 22.5 282.172 22.39 282.492 22.17C282.822 21.95 283.077 21.65 283.257 21.27C283.447 20.88 283.542 20.45 283.542 19.98C283.542 19.5 283.447 19.075 283.257 18.705C283.077 18.325 282.822 18.025 282.492 17.805C282.172 17.585 281.792 17.475 281.352 17.475ZM288.791 23.085C288.791 23.345 288.701 23.565 288.521 23.745C288.351 23.915 288.136 24 287.876 24C287.626 24 287.416 23.915 287.246 23.745C287.076 23.565 286.991 23.345 286.991 23.085V13.815C286.991 13.555 287.076 13.34 287.246 13.17C287.426 12.99 287.646 12.9 287.906 12.9C288.166 12.9 288.376 12.99 288.536 13.17C288.706 13.34 288.791 13.555 288.791 13.815V23.085ZM294.518 24.15C293.668 24.15 292.928 23.975 292.298 23.625C291.678 23.265 291.198 22.78 290.858 22.17C290.528 21.56 290.363 20.87 290.363 20.1C290.363 19.2 290.543 18.435 290.903 17.805C291.273 17.165 291.753 16.675 292.343 16.335C292.933 15.995 293.558 15.825 294.218 15.825C294.728 15.825 295.208 15.93 295.658 16.14C296.118 16.35 296.523 16.64 296.873 17.01C297.223 17.37 297.498 17.79 297.698 18.27C297.908 18.75 298.013 19.26 298.013 19.8C298.003 20.04 297.908 20.235 297.728 20.385C297.548 20.535 297.338 20.61 297.098 20.61H291.368L290.918 19.11H296.423L296.093 19.41V19.005C296.073 18.715 295.968 18.455 295.778 18.225C295.598 17.995 295.368 17.815 295.088 17.685C294.818 17.545 294.528 17.475 294.218 17.475C293.918 17.475 293.638 17.515 293.378 17.595C293.118 17.675 292.893 17.81 292.703 18C292.513 18.19 292.363 18.445 292.253 18.765C292.143 19.085 292.088 19.49 292.088 19.98C292.088 20.52 292.198 20.98 292.418 21.36C292.648 21.73 292.938 22.015 293.288 22.215C293.648 22.405 294.028 22.5 294.428 22.5C294.798 22.5 295.093 22.47 295.313 22.41C295.533 22.35 295.708 22.28 295.838 22.2C295.978 22.11 296.103 22.035 296.213 21.975C296.393 21.885 296.563 21.84 296.723 21.84C296.943 21.84 297.123 21.915 297.263 22.065C297.413 22.215 297.488 22.39 297.488 22.59C297.488 22.86 297.348 23.105 297.068 23.325C296.808 23.545 296.443 23.74 295.973 23.91C295.503 24.07 295.018 24.15 294.518 24.15ZM235.666 34.855L232.426 42.475C232.356 42.665 232.246 42.815 232.096 42.925C231.956 43.025 231.801 43.075 231.631 43.075C231.361 43.075 231.161 43 231.031 42.85C230.901 42.7 230.836 42.515 230.836 42.295C230.836 42.205 230.851 42.11 230.881 42.01L234.616 33.04C234.696 32.84 234.816 32.685 234.976 32.575C235.146 32.465 235.326 32.42 235.516 32.44C235.696 32.44 235.861 32.495 236.011 32.605C236.171 32.705 236.286 32.85 236.356 33.04L240.046 41.83C240.096 41.96 240.121 42.08 240.121 42.19C240.121 42.46 240.031 42.675 239.851 42.835C239.681 42.995 239.491 43.075 239.281 43.075C239.101 43.075 238.936 43.02 238.786 42.91C238.646 42.8 238.536 42.65 238.456 42.46L235.231 34.945L235.666 34.855ZM232.891 40.645L233.716 38.92H237.766L238.051 40.645H232.891ZM242.936 42.085C242.936 42.345 242.851 42.565 242.681 42.745C242.511 42.915 242.296 43 242.036 43C241.776 43 241.561 42.915 241.391 42.745C241.221 42.565 241.136 42.345 241.136 42.085V35.89C241.136 35.63 241.221 35.415 241.391 35.245C241.561 35.065 241.776 34.975 242.036 34.975C242.296 34.975 242.511 35.065 242.681 35.245C242.851 35.415 242.936 35.63 242.936 35.89V42.085ZM242.021 34C241.681 34 241.441 33.945 241.301 33.835C241.161 33.725 241.091 33.53 241.091 33.25V32.965C241.091 32.675 241.166 32.48 241.316 32.38C241.476 32.27 241.716 32.215 242.036 32.215C242.386 32.215 242.631 32.27 242.771 32.38C242.911 32.49 242.981 32.685 242.981 32.965V33.25C242.981 33.54 242.906 33.74 242.756 33.85C242.606 33.95 242.361 34 242.021 34ZM245.686 43C245.426 43 245.211 42.915 245.041 42.745C244.871 42.565 244.786 42.345 244.786 42.085V35.89C244.786 35.63 244.871 35.415 245.041 35.245C245.211 35.065 245.426 34.975 245.686 34.975C245.946 34.975 246.161 35.065 246.331 35.245C246.501 35.415 246.586 35.63 246.586 35.89V37.3L246.481 36.295C246.591 36.055 246.731 35.845 246.901 35.665C247.081 35.475 247.281 35.32 247.501 35.2C247.721 35.07 247.956 34.975 248.206 34.915C248.456 34.855 248.706 34.825 248.956 34.825C249.256 34.825 249.506 34.91 249.706 35.08C249.916 35.25 250.021 35.45 250.021 35.68C250.021 36.01 249.936 36.25 249.766 36.4C249.596 36.54 249.411 36.61 249.211 36.61C249.021 36.61 248.846 36.575 248.686 36.505C248.536 36.435 248.361 36.4 248.161 36.4C247.981 36.4 247.796 36.445 247.606 36.535C247.426 36.615 247.256 36.745 247.096 36.925C246.946 37.105 246.821 37.33 246.721 37.6C246.631 37.86 246.586 38.17 246.586 38.53V42.085C246.586 42.345 246.501 42.565 246.331 42.745C246.161 42.915 245.946 43 245.686 43Z" fill="black"/>
<path d="M23.9712 34.15C23.2712 34.15 22.6412 34.065 22.0812 33.895C21.5212 33.715 20.9862 33.405 20.4762 32.965C20.3462 32.855 20.2462 32.73 20.1762 32.59C20.1062 32.45 20.0712 32.31 20.0712 32.17C20.0712 31.94 20.1512 31.74 20.3112 31.57C20.4812 31.39 20.6912 31.3 20.9412 31.3C21.1312 31.3 21.3012 31.36 21.4512 31.48C21.8312 31.79 22.2062 32.025 22.5762 32.185C22.9562 32.345 23.4212 32.425 23.9712 32.425C24.3412 32.425 24.6812 32.37 24.9912 32.26C25.3012 32.14 25.5512 31.985 25.7412 31.795C25.9312 31.595 26.0262 31.37 26.0262 31.12C26.0262 30.82 25.9362 30.565 25.7562 30.355C25.5762 30.145 25.3012 29.97 24.9312 29.83C24.5612 29.68 24.0912 29.565 23.5212 29.485C22.9812 29.405 22.5062 29.285 22.0962 29.125C21.6862 28.955 21.3412 28.745 21.0612 28.495C20.7912 28.235 20.5862 27.935 20.4462 27.595C20.3062 27.245 20.2362 26.855 20.2362 26.425C20.2362 25.775 20.4012 25.22 20.7312 24.76C21.0712 24.3 21.5262 23.95 22.0962 23.71C22.6662 23.47 23.2962 23.35 23.9862 23.35C24.6362 23.35 25.2362 23.45 25.7862 23.65C26.3462 23.84 26.8012 24.085 27.1512 24.385C27.4412 24.615 27.5862 24.88 27.5862 25.18C27.5862 25.4 27.5012 25.6 27.3312 25.78C27.1612 25.96 26.9612 26.05 26.7312 26.05C26.5812 26.05 26.4462 26.005 26.3262 25.915C26.1662 25.775 25.9512 25.645 25.6812 25.525C25.4112 25.395 25.1262 25.29 24.8262 25.21C24.5262 25.12 24.2462 25.075 23.9862 25.075C23.5562 25.075 23.1912 25.13 22.8912 25.24C22.6012 25.35 22.3812 25.5 22.2312 25.69C22.0812 25.88 22.0062 26.1 22.0062 26.35C22.0062 26.65 22.0912 26.9 22.2612 27.1C22.4412 27.29 22.6962 27.445 23.0262 27.565C23.3562 27.675 23.7512 27.775 24.2112 27.865C24.8112 27.975 25.3362 28.105 25.7862 28.255C26.2462 28.405 26.6262 28.6 26.9262 28.84C27.2262 29.07 27.4512 29.365 27.6012 29.725C27.7512 30.075 27.8262 30.505 27.8262 31.015C27.8262 31.665 27.6462 32.225 27.2862 32.695C26.9262 33.165 26.4512 33.525 25.8612 33.775C25.2812 34.025 24.6512 34.15 23.9712 34.15ZM33.1764 34.15C32.3264 34.15 31.5864 33.975 30.9564 33.625C30.3364 33.265 29.8564 32.78 29.5164 32.17C29.1864 31.56 29.0214 30.87 29.0214 30.1C29.0214 29.2 29.2014 28.435 29.5614 27.805C29.9314 27.165 30.4114 26.675 31.0014 26.335C31.5914 25.995 32.2164 25.825 32.8764 25.825C33.3864 25.825 33.8664 25.93 34.3164 26.14C34.7764 26.35 35.1814 26.64 35.5314 27.01C35.8814 27.37 36.1564 27.79 36.3564 28.27C36.5664 28.75 36.6714 29.26 36.6714 29.8C36.6614 30.04 36.5664 30.235 36.3864 30.385C36.2064 30.535 35.9964 30.61 35.7564 30.61H30.0264L29.5764 29.11H35.0814L34.7514 29.41V29.005C34.7314 28.715 34.6264 28.455 34.4364 28.225C34.2564 27.995 34.0264 27.815 33.7464 27.685C33.4764 27.545 33.1864 27.475 32.8764 27.475C32.5764 27.475 32.2964 27.515 32.0364 27.595C31.7764 27.675 31.5514 27.81 31.3614 28C31.1714 28.19 31.0214 28.445 30.9114 28.765C30.8014 29.085 30.7464 29.49 30.7464 29.98C30.7464 30.52 30.8564 30.98 31.0764 31.36C31.3064 31.73 31.5964 32.015 31.9464 32.215C32.3064 32.405 32.6864 32.5 33.0864 32.5C33.4564 32.5 33.7514 32.47 33.9714 32.41C34.1914 32.35 34.3664 32.28 34.4964 32.2C34.6364 32.11 34.7614 32.035 34.8714 31.975C35.0514 31.885 35.2214 31.84 35.3814 31.84C35.6014 31.84 35.7814 31.915 35.9214 32.065C36.0714 32.215 36.1464 32.39 36.1464 32.59C36.1464 32.86 36.0064 33.105 35.7264 33.325C35.4664 33.545 35.1014 33.74 34.6314 33.91C34.1614 34.07 33.6764 34.15 33.1764 34.15ZM42.534 25.825C43.274 25.825 43.834 25.98 44.214 26.29C44.604 26.6 44.869 27.015 45.009 27.535C45.159 28.045 45.234 28.615 45.234 29.245V33.085C45.234 33.345 45.149 33.565 44.979 33.745C44.809 33.915 44.594 34 44.334 34C44.074 34 43.859 33.915 43.689 33.745C43.519 33.565 43.434 33.345 43.434 33.085V29.245C43.434 28.915 43.389 28.62 43.299 28.36C43.219 28.09 43.069 27.875 42.849 27.715C42.629 27.555 42.314 27.475 41.904 27.475C41.504 27.475 41.164 27.555 40.884 27.715C40.614 27.875 40.404 28.09 40.254 28.36C40.114 28.62 40.044 28.915 40.044 29.245V33.085C40.044 33.345 39.959 33.565 39.789 33.745C39.619 33.915 39.404 34 39.144 34C38.884 34 38.669 33.915 38.499 33.745C38.329 33.565 38.244 33.345 38.244 33.085V26.89C38.244 26.63 38.329 26.415 38.499 26.245C38.669 26.065 38.884 25.975 39.144 25.975C39.404 25.975 39.619 26.065 39.789 26.245C39.959 26.415 40.044 26.63 40.044 26.89V27.535L39.819 27.49C39.909 27.32 40.039 27.14 40.209 26.95C40.379 26.75 40.579 26.565 40.809 26.395C41.039 26.225 41.299 26.09 41.589 25.99C41.879 25.88 42.194 25.825 42.534 25.825ZM46.7146 32.755C46.6146 32.615 46.5696 32.435 46.5796 32.215C46.5896 31.995 46.7196 31.805 46.9696 31.645C47.1296 31.545 47.2996 31.505 47.4796 31.525C47.6596 31.535 47.8346 31.625 48.0046 31.795C48.2946 32.085 48.5996 32.31 48.9196 32.47C49.2396 32.63 49.6396 32.71 50.1196 32.71C50.2696 32.7 50.4346 32.68 50.6146 32.65C50.7946 32.61 50.9496 32.53 51.0796 32.41C51.2196 32.28 51.2896 32.085 51.2896 31.825C51.2896 31.605 51.2146 31.43 51.0646 31.3C50.9146 31.17 50.7146 31.06 50.4646 30.97C50.2246 30.88 49.9546 30.795 49.6546 30.715C49.3446 30.625 49.0246 30.525 48.6946 30.415C48.3746 30.305 48.0796 30.165 47.8096 29.995C47.5396 29.815 47.3196 29.58 47.1496 29.29C46.9796 29 46.8946 28.635 46.8946 28.195C46.8946 27.695 47.0346 27.27 47.3146 26.92C47.5946 26.57 47.9546 26.3 48.3946 26.11C48.8446 25.92 49.3146 25.825 49.8046 25.825C50.1146 25.825 50.4396 25.865 50.7796 25.945C51.1196 26.015 51.4446 26.135 51.7546 26.305C52.0646 26.465 52.3246 26.68 52.5346 26.95C52.6446 27.1 52.7096 27.28 52.7296 27.49C52.7496 27.7 52.6546 27.89 52.4446 28.06C52.2946 28.18 52.1196 28.235 51.9196 28.225C51.7196 28.205 51.5546 28.135 51.4246 28.015C51.2546 27.795 51.0246 27.62 50.7346 27.49C50.4546 27.36 50.1296 27.295 49.7596 27.295C49.6096 27.295 49.4446 27.315 49.2646 27.355C49.0946 27.385 48.9446 27.46 48.8146 27.58C48.6846 27.69 48.6196 27.87 48.6196 28.12C48.6196 28.35 48.6946 28.535 48.8446 28.675C48.9946 28.805 49.1946 28.915 49.4446 29.005C49.7046 29.085 49.9796 29.165 50.2696 29.245C50.5696 29.325 50.8746 29.42 51.1846 29.53C51.4946 29.64 51.7796 29.785 52.0396 29.965C52.2996 30.145 52.5096 30.38 52.6696 30.67C52.8296 30.95 52.9096 31.31 52.9096 31.75C52.9096 32.26 52.7596 32.695 52.4596 33.055C52.1596 33.415 51.7846 33.69 51.3346 33.88C50.8846 34.06 50.4246 34.15 49.9546 34.15C49.3646 34.15 48.7746 34.05 48.1846 33.85C47.5946 33.64 47.1046 33.275 46.7146 32.755ZM62.2009 29.995C62.2009 30.815 62.0159 31.54 61.6459 32.17C61.2859 32.79 60.7959 33.275 60.1759 33.625C59.5659 33.975 58.8809 34.15 58.1209 34.15C57.3609 34.15 56.6709 33.975 56.0509 33.625C55.4409 33.275 54.9509 32.79 54.5809 32.17C54.2209 31.54 54.0409 30.815 54.0409 29.995C54.0409 29.175 54.2209 28.455 54.5809 27.835C54.9509 27.205 55.4409 26.715 56.0509 26.365C56.6709 26.005 57.3609 25.825 58.1209 25.825C58.8809 25.825 59.5659 26.005 60.1759 26.365C60.7959 26.715 61.2859 27.205 61.6459 27.835C62.0159 28.455 62.2009 29.175 62.2009 29.995ZM60.4009 29.995C60.4009 29.485 60.2959 29.045 60.0859 28.675C59.8859 28.295 59.6109 28 59.2609 27.79C58.9209 27.58 58.5409 27.475 58.1209 27.475C57.7009 27.475 57.3159 27.58 56.9659 27.79C56.6259 28 56.3509 28.295 56.1409 28.675C55.9409 29.045 55.8409 29.485 55.8409 29.995C55.8409 30.495 55.9409 30.935 56.1409 31.315C56.3509 31.685 56.6259 31.975 56.9659 32.185C57.3159 32.395 57.7009 32.5 58.1209 32.5C58.5409 32.5 58.9209 32.395 59.2609 32.185C59.6109 31.975 59.8859 31.685 60.0859 31.315C60.2959 30.935 60.4009 30.495 60.4009 29.995ZM64.6763 34C64.4163 34 64.2013 33.915 64.0313 33.745C63.8613 33.565 63.7763 33.345 63.7763 33.085V26.89C63.7763 26.63 63.8613 26.415 64.0313 26.245C64.2013 26.065 64.4163 25.975 64.6763 25.975C64.9363 25.975 65.1513 26.065 65.3213 26.245C65.4913 26.415 65.5763 26.63 65.5763 26.89V28.3L65.4713 27.295C65.5813 27.055 65.7213 26.845 65.8913 26.665C66.0713 26.475 66.2713 26.32 66.4913 26.2C66.7113 26.07 66.9463 25.975 67.1963 25.915C67.4463 25.855 67.6963 25.825 67.9463 25.825C68.2463 25.825 68.4963 25.91 68.6963 26.08C68.9063 26.25 69.0113 26.45 69.0113 26.68C69.0113 27.01 68.9263 27.25 68.7563 27.4C68.5863 27.54 68.4013 27.61 68.2013 27.61C68.0113 27.61 67.8363 27.575 67.6763 27.505C67.5263 27.435 67.3513 27.4 67.1513 27.4C66.9713 27.4 66.7863 27.445 66.5963 27.535C66.4163 27.615 66.2463 27.745 66.0863 27.925C65.9363 28.105 65.8113 28.33 65.7113 28.6C65.6213 28.86 65.5763 29.17 65.5763 29.53V33.085C65.5763 33.345 65.4913 33.565 65.3213 33.745C65.1513 33.915 64.9363 34 64.6763 34ZM73.7233 34.15C72.8733 34.15 72.1333 33.975 71.5033 33.625C70.8833 33.265 70.4033 32.78 70.0633 32.17C69.7333 31.56 69.5683 30.87 69.5683 30.1C69.5683 29.2 69.7483 28.435 70.1083 27.805C70.4783 27.165 70.9583 26.675 71.5483 26.335C72.1383 25.995 72.7633 25.825 73.4233 25.825C73.9333 25.825 74.4133 25.93 74.8633 26.14C75.3233 26.35 75.7283 26.64 76.0783 27.01C76.4283 27.37 76.7033 27.79 76.9033 28.27C77.1133 28.75 77.2183 29.26 77.2183 29.8C77.2083 30.04 77.1133 30.235 76.9333 30.385C76.7533 30.535 76.5433 30.61 76.3033 30.61H70.5733L70.1233 29.11H75.6283L75.2983 29.41V29.005C75.2783 28.715 75.1733 28.455 74.9833 28.225C74.8033 27.995 74.5733 27.815 74.2933 27.685C74.0233 27.545 73.7333 27.475 73.4233 27.475C73.1233 27.475 72.8433 27.515 72.5833 27.595C72.3233 27.675 72.0983 27.81 71.9083 28C71.7183 28.19 71.5683 28.445 71.4583 28.765C71.3483 29.085 71.2933 29.49 71.2933 29.98C71.2933 30.52 71.4033 30.98 71.6233 31.36C71.8533 31.73 72.1433 32.015 72.4933 32.215C72.8533 32.405 73.2333 32.5 73.6333 32.5C74.0033 32.5 74.2983 32.47 74.5183 32.41C74.7383 32.35 74.9133 32.28 75.0433 32.2C75.1833 32.11 75.3083 32.035 75.4183 31.975C75.5983 31.885 75.7683 31.84 75.9283 31.84C76.1483 31.84 76.3283 31.915 76.4683 32.065C76.6183 32.215 76.6933 32.39 76.6933 32.59C76.6933 32.86 76.5533 33.105 76.2733 33.325C76.0133 33.545 75.6483 33.74 75.1783 33.91C74.7083 34.07 74.2233 34.15 73.7233 34.15ZM78.3259 32.755C78.2259 32.615 78.1809 32.435 78.1909 32.215C78.2009 31.995 78.3309 31.805 78.5809 31.645C78.7409 31.545 78.9109 31.505 79.0909 31.525C79.2709 31.535 79.4459 31.625 79.6159 31.795C79.9059 32.085 80.2109 32.31 80.5309 32.47C80.8509 32.63 81.2509 32.71 81.7309 32.71C81.8809 32.7 82.0459 32.68 82.2259 32.65C82.4059 32.61 82.5609 32.53 82.6909 32.41C82.8309 32.28 82.9009 32.085 82.9009 31.825C82.9009 31.605 82.8259 31.43 82.6759 31.3C82.5259 31.17 82.3259 31.06 82.0759 30.97C81.8359 30.88 81.5659 30.795 81.2659 30.715C80.9559 30.625 80.6359 30.525 80.3059 30.415C79.9859 30.305 79.6909 30.165 79.4209 29.995C79.1509 29.815 78.9309 29.58 78.7609 29.29C78.5909 29 78.5059 28.635 78.5059 28.195C78.5059 27.695 78.6459 27.27 78.9259 26.92C79.2059 26.57 79.5659 26.3 80.0059 26.11C80.4559 25.92 80.9259 25.825 81.4159 25.825C81.7259 25.825 82.0509 25.865 82.3909 25.945C82.7309 26.015 83.0559 26.135 83.3659 26.305C83.6759 26.465 83.9359 26.68 84.1459 26.95C84.2559 27.1 84.3209 27.28 84.3409 27.49C84.3609 27.7 84.2659 27.89 84.0559 28.06C83.9059 28.18 83.7309 28.235 83.5309 28.225C83.3309 28.205 83.1659 28.135 83.0359 28.015C82.8659 27.795 82.6359 27.62 82.3459 27.49C82.0659 27.36 81.7409 27.295 81.3709 27.295C81.2209 27.295 81.0559 27.315 80.8759 27.355C80.7059 27.385 80.5559 27.46 80.4259 27.58C80.2959 27.69 80.2309 27.87 80.2309 28.12C80.2309 28.35 80.3059 28.535 80.4559 28.675C80.6059 28.805 80.8059 28.915 81.0559 29.005C81.3159 29.085 81.5909 29.165 81.8809 29.245C82.1809 29.325 82.4859 29.42 82.7959 29.53C83.1059 29.64 83.3909 29.785 83.6509 29.965C83.9109 30.145 84.1209 30.38 84.2809 30.67C84.4409 30.95 84.5209 31.31 84.5209 31.75C84.5209 32.26 84.3709 32.695 84.0709 33.055C83.7709 33.415 83.3959 33.69 82.9459 33.88C82.4959 34.06 82.0359 34.15 81.5659 34.15C80.9759 34.15 80.3859 34.05 79.7959 33.85C79.2059 33.64 78.7159 33.275 78.3259 32.755ZM93.7563 34.15C93.0563 34.15 92.4263 34.065 91.8663 33.895C91.3063 33.715 90.7713 33.405 90.2613 32.965C90.1313 32.855 90.0313 32.73 89.9613 32.59C89.8913 32.45 89.8563 32.31 89.8563 32.17C89.8563 31.94 89.9363 31.74 90.0963 31.57C90.2663 31.39 90.4763 31.3 90.7263 31.3C90.9163 31.3 91.0863 31.36 91.2363 31.48C91.6163 31.79 91.9913 32.025 92.3613 32.185C92.7413 32.345 93.2063 32.425 93.7563 32.425C94.1263 32.425 94.4663 32.37 94.7763 32.26C95.0863 32.14 95.3363 31.985 95.5263 31.795C95.7163 31.595 95.8113 31.37 95.8113 31.12C95.8113 30.82 95.7213 30.565 95.5413 30.355C95.3613 30.145 95.0863 29.97 94.7163 29.83C94.3463 29.68 93.8763 29.565 93.3063 29.485C92.7663 29.405 92.2913 29.285 91.8813 29.125C91.4713 28.955 91.1263 28.745 90.8463 28.495C90.5763 28.235 90.3713 27.935 90.2313 27.595C90.0913 27.245 90.0213 26.855 90.0213 26.425C90.0213 25.775 90.1863 25.22 90.5163 24.76C90.8563 24.3 91.3113 23.95 91.8813 23.71C92.4513 23.47 93.0813 23.35 93.7713 23.35C94.4213 23.35 95.0213 23.45 95.5713 23.65C96.1313 23.84 96.5863 24.085 96.9363 24.385C97.2263 24.615 97.3713 24.88 97.3713 25.18C97.3713 25.4 97.2863 25.6 97.1163 25.78C96.9463 25.96 96.7463 26.05 96.5163 26.05C96.3663 26.05 96.2313 26.005 96.1113 25.915C95.9513 25.775 95.7363 25.645 95.4663 25.525C95.1963 25.395 94.9113 25.29 94.6113 25.21C94.3113 25.12 94.0313 25.075 93.7713 25.075C93.3413 25.075 92.9763 25.13 92.6763 25.24C92.3863 25.35 92.1663 25.5 92.0163 25.69C91.8663 25.88 91.7913 26.1 91.7913 26.35C91.7913 26.65 91.8763 26.9 92.0463 27.1C92.2263 27.29 92.4813 27.445 92.8113 27.565C93.1413 27.675 93.5363 27.775 93.9963 27.865C94.5963 27.975 95.1213 28.105 95.5713 28.255C96.0313 28.405 96.4113 28.6 96.7113 28.84C97.0113 29.07 97.2363 29.365 97.3863 29.725C97.5363 30.075 97.6113 30.505 97.6113 31.015C97.6113 31.665 97.4313 32.225 97.0713 32.695C96.7113 33.165 96.2363 33.525 95.6463 33.775C95.0663 34.025 94.4363 34.15 93.7563 34.15ZM102.962 34.15C102.112 34.15 101.372 33.975 100.742 33.625C100.122 33.265 99.6415 32.78 99.3015 32.17C98.9715 31.56 98.8065 30.87 98.8065 30.1C98.8065 29.2 98.9865 28.435 99.3465 27.805C99.7165 27.165 100.197 26.675 100.787 26.335C101.377 25.995 102.002 25.825 102.662 25.825C103.172 25.825 103.652 25.93 104.102 26.14C104.562 26.35 104.967 26.64 105.317 27.01C105.667 27.37 105.942 27.79 106.142 28.27C106.352 28.75 106.457 29.26 106.457 29.8C106.447 30.04 106.352 30.235 106.172 30.385C105.992 30.535 105.782 30.61 105.542 30.61H99.8115L99.3615 29.11H104.867L104.537 29.41V29.005C104.517 28.715 104.412 28.455 104.222 28.225C104.042 27.995 103.812 27.815 103.532 27.685C103.262 27.545 102.972 27.475 102.662 27.475C102.362 27.475 102.082 27.515 101.822 27.595C101.562 27.675 101.337 27.81 101.147 28C100.957 28.19 100.807 28.445 100.697 28.765C100.587 29.085 100.532 29.49 100.532 29.98C100.532 30.52 100.642 30.98 100.862 31.36C101.092 31.73 101.382 32.015 101.732 32.215C102.092 32.405 102.472 32.5 102.872 32.5C103.242 32.5 103.537 32.47 103.757 32.41C103.977 32.35 104.152 32.28 104.282 32.2C104.422 32.11 104.547 32.035 104.657 31.975C104.837 31.885 105.007 31.84 105.167 31.84C105.387 31.84 105.567 31.915 105.707 32.065C105.857 32.215 105.932 32.39 105.932 32.59C105.932 32.86 105.792 33.105 105.512 33.325C105.252 33.545 104.887 33.74 104.417 33.91C103.947 34.07 103.462 34.15 102.962 34.15ZM109.979 33.085C109.979 33.345 109.889 33.565 109.709 33.745C109.539 33.915 109.324 34 109.064 34C108.814 34 108.604 33.915 108.434 33.745C108.264 33.565 108.179 33.345 108.179 33.085V23.815C108.179 23.555 108.264 23.34 108.434 23.17C108.614 22.99 108.834 22.9 109.094 22.9C109.354 22.9 109.564 22.99 109.724 23.17C109.894 23.34 109.979 23.555 109.979 23.815V33.085ZM112.051 25.975C112.241 25.975 112.416 26.025 112.576 26.125C112.736 26.215 112.856 26.355 112.936 26.545L115.141 31.585L114.811 31.735L117.061 26.56C117.231 26.16 117.496 25.97 117.856 25.99C118.106 25.99 118.306 26.07 118.456 26.23C118.616 26.38 118.696 26.57 118.696 26.8C118.696 26.87 118.681 26.945 118.651 27.025C118.631 27.105 118.606 27.18 118.576 27.25L115.771 33.43C115.611 33.79 115.356 33.98 115.006 34C114.816 34.03 114.631 33.995 114.451 33.895C114.281 33.795 114.151 33.64 114.061 33.43L111.271 27.25C111.251 27.2 111.226 27.135 111.196 27.055C111.176 26.975 111.166 26.88 111.166 26.77C111.166 26.59 111.246 26.415 111.406 26.245C111.566 26.065 111.781 25.975 112.051 25.975ZM126.655 25.825C126.915 25.825 127.13 25.91 127.3 26.08C127.47 26.25 127.555 26.47 127.555 26.74V33.085C127.555 33.345 127.47 33.565 127.3 33.745C127.13 33.915 126.915 34 126.655 34C126.395 34 126.18 33.915 126.01 33.745C125.84 33.565 125.755 33.345 125.755 33.085V32.35L126.085 32.485C126.085 32.615 126.015 32.775 125.875 32.965C125.735 33.145 125.545 33.325 125.305 33.505C125.065 33.685 124.78 33.84 124.45 33.97C124.13 34.09 123.78 34.15 123.4 34.15C122.71 34.15 122.085 33.975 121.525 33.625C120.965 33.265 120.52 32.775 120.19 32.155C119.87 31.525 119.71 30.805 119.71 29.995C119.71 29.175 119.87 28.455 120.19 27.835C120.52 27.205 120.96 26.715 121.51 26.365C122.06 26.005 122.67 25.825 123.34 25.825C123.77 25.825 124.165 25.89 124.525 26.02C124.885 26.15 125.195 26.315 125.455 26.515C125.725 26.715 125.93 26.92 126.07 27.13C126.22 27.33 126.295 27.5 126.295 27.64L125.755 27.835V26.74C125.755 26.48 125.84 26.265 126.01 26.095C126.18 25.915 126.395 25.825 126.655 25.825ZM123.625 32.5C124.065 32.5 124.45 32.39 124.78 32.17C125.11 31.95 125.365 31.65 125.545 31.27C125.735 30.89 125.83 30.465 125.83 29.995C125.83 29.515 125.735 29.085 125.545 28.705C125.365 28.325 125.11 28.025 124.78 27.805C124.45 27.585 124.065 27.475 123.625 27.475C123.195 27.475 122.815 27.585 122.485 27.805C122.155 28.025 121.895 28.325 121.705 28.705C121.525 29.085 121.435 29.515 121.435 29.995C121.435 30.465 121.525 30.89 121.705 31.27C121.895 31.65 122.155 31.95 122.485 32.17C122.815 32.39 123.195 32.5 123.625 32.5Z" fill="white"/>
</svg>
